<svg width="26" height="26" viewBox="0 0 2680 2680" fill="#b9cbd6" xmlns="http://www.w3.org/2000/svg">
<path d="M1214.38 2155.17L477.375 1418.17C466.208 1407 458.28 1394.9 453.59 1381.88C448.975 1368.85 446.667 1354.89 446.667 1340C446.667 1325.11 448.975 1311.15 453.59 1298.13C458.28 1285.1 466.208 1273 477.375 1261.83L1214.38 524.833C1234.85 504.361 1260.42 493.641 1291.09 492.673C1321.84 491.78 1348.38 502.5 1370.71 524.833C1393.04 545.306 1404.69 570.877 1405.66 601.548C1406.55 632.294 1395.83 658.833 1373.5 681.167L826.333 1228.33H2074.21C2105.85 1228.33 2132.39 1239.02 2153.83 1260.38C2175.19 1281.82 2185.88 1308.36 2185.88 1340C2185.88 1371.64 2175.19 1398.14 2153.83 1419.51C2132.39 1440.95 2105.85 1451.67 2074.21 1451.67H826.333L1373.5 1998.83C1393.97 2019.31 1404.69 2045.36 1405.66 2077C1406.55 2108.64 1395.83 2134.69 1373.5 2155.17C1353.03 2177.5 1326.97 2188.67 1295.33 2188.67C1263.69 2188.67 1236.71 2177.5 1214.38 2155.17Z"/>
</svg>
